<svg xmlns="http://www.w3.org/2000/svg" xmlns:svg="http://www.w3.org/2000/svg" id="svg29" width="64" height="64" version="1.1" viewBox="0 0 64 64"><metadata id="metadata48"/><title id="title31">numix-logo</title><desc id="desc33">Created with Sketch.</desc><g id="Page-1" fill="none" fill-rule="evenodd" stroke="none" stroke-width="1"><g id="numix-logo"><g id="g39" transform="translate(-1.000000, 0.000000)"><path id="background" fill="#F1544D" d="M32.9999648,63.9999994 C15.3268429,63.9999994 0.999999664,49.6731095 0.999999664,32 C0.999999664,14.3268899 15.3268429,6.40760014e-07 32.9999648,6.40760014e-07 C50.6730867,6.40760014e-07 65.0000009,14.3268899 65.0000009,32 C65.0000009,49.6731095 50.6730867,63.9999994 32.9999648,63.9999994 Z"/><g id="n" transform="translate(20.000000, 18.000000)"><path id="Shape" fill="#F9F9F9" d="M2.000051,1 C1.476444,1.0071 0.991836,1.541845 1.000051,2 L1.000051,5.75 C1.499517,4.675704 2.190588,3.71028 3.000051,2.84375 L3.000051,2 C3.008451,1.53273 2.534073,0.992669 2.000051,1 L2.000051,1 Z"/><path id="path44" stroke="#F9F9F9" stroke-width="2" d="M2.000031,27.00002 L2.000031,11.32877 C2.000031,5.606617 6.906033,0.99998 13.00006,0.99998 L13.00006,0.99998 C19.094064,0.99998 24.000072,5.606617 24.000072,11.32877 L24.000072,27.00002"/></g></g></g></g></svg>